<?xml version="1.0" encoding="utf-8"?>
<svg xmlns="http://www.w3.org/2000/svg">
    <defs>
        <!-- icons go here -->
        <symbol id="rise-star" viewBox="0 0 45 46" fill="none">
            <path
                d="M34.0981 22.9996L31.7811 23.0828C26.8124 23.2611 22.8256 27.2479 22.6472 32.2167L22.5641 34.5337L22.4809 32.2167C22.3026 27.2479 18.3158 23.2611 13.347 23.0828L11.03 22.9996L13.347 22.9165C18.3158 22.7381 22.3026 18.7513 22.4809 13.7825L22.5641 11.4655L22.6472 13.7825C22.8256 18.7513 26.8124 22.7381 31.7811 22.9165L34.0981 22.9996Z"
                style="fill: var(--icon-fill)" />
            <path
                d="M34.0981 22.9996L31.7811 23.0828C26.8124 23.2611 22.8256 27.2479 22.6472 32.2167L22.5641 34.5337M34.0981 22.9996L31.7811 22.9165C26.8124 22.7381 22.8256 18.7513 22.6472 13.7825L22.5641 11.4655M34.0981 22.9996L45.0002 22.9996M22.5641 34.5337L22.4809 32.2167C22.3026 27.2479 18.3158 23.2611 13.347 23.0828L11.03 22.9996M22.5641 34.5337V45.4358M11.03 22.9996L13.347 22.9165C18.3158 22.7381 22.3026 18.7513 22.4809 13.7825L22.5641 11.4655M11.03 22.9996L0.12793 22.9996M22.5641 11.4655V0.563477"
                style="stroke: var(--icon-fill)" stroke-width="2.49291" stroke-linejoin="round" />
        </symbol>

        <symbol id="file" viewBox="0 0 45 43" fill="none">
            <path
                d="M26.2437 8.23047H14.0233C13.303 8.23047 12.6123 8.51008 12.103 9.00779C11.5937 9.5055 11.3076 10.1805 11.3076 10.8844V32.1159C11.3076 32.8198 11.5937 33.4948 12.103 33.9925C12.6123 34.4902 13.303 34.7699 14.0233 34.7699H30.3172C31.0375 34.7699 31.7282 34.4902 32.2375 33.9925C32.7468 33.4948 33.0329 32.8198 33.0329 32.1159V14.8653L26.2437 8.23047Z"
                stroke="#0D0C0C" stroke-width="1.72815" stroke-linecap="round"
                stroke-linejoin="round" />
            <path
                d="M24.8857 8.23047V13.5383C24.8857 14.2422 25.1719 14.9173 25.6811 15.415C26.1904 15.9127 26.8812 16.1923 27.6014 16.1923H33.0327"
                stroke="#0D0C0C" stroke-width="1.72815" stroke-linecap="round"
                stroke-linejoin="round" />
            <path d="M19.4544 17.5195H16.7388" stroke="#0D0C0C" stroke-width="1.72815"
                stroke-linecap="round" stroke-linejoin="round" />
            <path d="M27.6014 22.8262H16.7388" stroke="#0D0C0C" stroke-width="1.72815"
                stroke-linecap="round" stroke-linejoin="round" />
            <path d="M27.6014 28.1348H16.7388" stroke="#0D0C0C" stroke-width="1.72815"
                stroke-linecap="round" stroke-linejoin="round" />
        </symbol>

        <symbol id="check-round" viewBox="0 0 17 16" fill="none">
            <path
                d="M8.17008 14.6673C11.852 14.6673 14.8368 11.6825 14.8368 8.00065C14.8368 4.31875 11.852 1.33398 8.17008 1.33398C4.48819 1.33398 1.50342 4.31875 1.50342 8.00065C1.50342 11.6825 4.48819 14.6673 8.17008 14.6673Z"
                stroke="#7BD1A0" stroke-width="1.33333" stroke-linecap="round"
                stroke-linejoin="round" />
            <path d="M6.16992 7.99935L7.50326 9.33268L10.1699 6.66602" stroke="#7BD1A0"
                stroke-width="1.33333" stroke-linecap="round" stroke-linejoin="round" />
        </symbol>

        <symbol id="envelope" viewBox="0 0 17 17" fill="none">
            <path
                d="M14.0435 3.5498H3.37679C2.64041 3.5498 2.04346 4.14676 2.04346 4.88314V12.8831C2.04346 13.6195 2.64041 14.2165 3.37679 14.2165H14.0435C14.7798 14.2165 15.3768 13.6195 15.3768 12.8831V4.88314C15.3768 4.14676 14.7798 3.5498 14.0435 3.5498Z"
                stroke="white" stroke-width="1.33333" stroke-linecap="round" stroke-linejoin="round" />
            <path
                d="M15.3768 5.5498L9.39679 9.3498C9.19097 9.47876 8.953 9.54715 8.71012 9.54715C8.46725 9.54715 8.22928 9.47876 8.02346 9.3498L2.04346 5.5498"
                stroke="white" stroke-width="1.33333" stroke-linecap="round" stroke-linejoin="round" />
        </symbol>

        <symbol id="phone" viewBox="0 0 16 17" fill="none">
            <path
                d="M14.6665 12.1626V14.1626C14.6672 14.3482 14.6292 14.532 14.5548 14.7021C14.4804 14.8722 14.3713 15.0249 14.2345 15.1505C14.0977 15.276 13.9362 15.3715 13.7603 15.431C13.5844 15.4905 13.398 15.5126 13.2131 15.4959C11.1617 15.273 9.19113 14.572 7.45979 13.4492C5.84901 12.4257 4.48335 11.06 3.45979 9.44922C2.33311 7.71002 1.63195 5.72988 1.41313 3.66922C1.39647 3.48486 1.41838 3.29906 1.47746 3.12363C1.53654 2.94821 1.63151 2.78701 1.7563 2.6503C1.8811 2.51359 2.033 2.40436 2.20232 2.32957C2.37164 2.25477 2.55469 2.21606 2.73979 2.21588H4.73979C5.06333 2.2127 5.37699 2.32727 5.6223 2.53824C5.86761 2.74921 6.02784 3.04218 6.07313 3.36255C6.15754 4.0026 6.31409 4.63104 6.53979 5.23589C6.62949 5.4745 6.6489 5.73383 6.59573 5.98314C6.54256 6.23245 6.41903 6.46129 6.23979 6.64255L5.39313 7.48922C6.34216 9.15825 7.7241 10.5402 9.39313 11.4892L10.2398 10.6426C10.4211 10.4633 10.6499 10.3398 10.8992 10.2866C11.1485 10.2334 11.4078 10.2529 11.6465 10.3426C12.2513 10.5683 12.8797 10.7248 13.5198 10.8092C13.8436 10.8549 14.1394 11.018 14.3508 11.2675C14.5622 11.5171 14.6746 11.8356 14.6665 12.1626Z"
                stroke="white" stroke-width="1.33333" stroke-linecap="round" stroke-linejoin="round" />
        </symbol>
    </defs>
</svg>