<svg width="1760" height="72" viewBox="0 0 1760 72" fill="none" xmlns="http://www.w3.org/2000/svg">
<g opacity="0.2">
<path d="M59.767 35.7882L55.7367 35.9201C47.0935 36.2031 40.1585 42.5292 39.8483 50.4134L39.7036 54.0899L39.559 50.4134C39.2487 42.5292 32.3137 36.2031 23.6706 35.9201L18.9841 35.7882L23.6706 35.6562C32.3137 35.3732 39.2487 29.0471 39.559 21.1629L39.7036 17.4864L39.8483 21.1629C40.1585 29.0471 47.0935 35.3732 55.7367 35.6562L59.767 35.7882Z" fill="#955F00"/>
<path d="M59.767 35.7882L55.7367 35.9201C47.0935 36.2031 40.1585 42.5292 39.8483 50.4134L39.7036 54.0899M59.767 35.7882L55.7367 35.6562C47.0935 35.3732 40.1585 29.0471 39.8483 21.1629L39.7036 17.4864M59.767 35.7882H880M39.7036 54.0899L39.559 50.4134C39.2487 42.5292 32.3137 36.2031 23.6706 35.9201L18.9841 35.7882M39.7036 54.0899V71.3888M18.9841 35.7882L23.6706 35.6562C32.3137 35.3732 39.2487 29.0471 39.559 21.1629L39.7036 17.4864M18.9841 35.7882L0.0200195 35.7882M39.7036 17.4864V0.1875" stroke="#955F00" stroke-width="3.85457" stroke-linejoin="round"/>
<path d="M1700.23 35.7882L1704.26 35.9201C1712.91 36.2031 1719.84 42.5292 1720.15 50.4134L1720.3 54.0899L1720.44 50.4134C1720.75 42.5292 1727.69 36.2031 1736.33 35.9201L1741.02 35.7882L1736.33 35.6562C1727.69 35.3732 1720.75 29.0471 1720.44 21.1629L1720.3 17.4864L1720.15 21.1629C1719.84 29.0471 1712.91 35.3732 1704.26 35.6562L1700.23 35.7882Z" fill="#955F00"/>
<path d="M1700.23 35.7882L1704.26 35.9201C1712.91 36.2031 1719.84 42.5292 1720.15 50.4134L1720.3 54.0899M1700.23 35.7882L1704.26 35.6562C1712.91 35.3732 1719.84 29.0471 1720.15 21.1629L1720.3 17.4864M1700.23 35.7882H880M1720.3 54.0899L1720.44 50.4134C1720.75 42.5292 1727.69 36.2031 1736.33 35.9201L1741.02 35.7882M1720.3 54.0899V71.3888M1741.02 35.7882L1736.33 35.6562C1727.69 35.3732 1720.75 29.0471 1720.44 21.1629L1720.3 17.4864M1741.02 35.7882L1759.98 35.7882M1720.3 17.4864V0.1875" stroke="#955F00" stroke-width="3.85457" stroke-linejoin="round"/>
</g>
</svg>
