<svg width="283" height="183" viewBox="0 0 283 183" fill="none" xmlns="http://www.w3.org/2000/svg">
<rect x="0.110352" y="0.132812" width="282.37" height="181.97" rx="4" fill="white"/>
<path d="M63.7537 150.97C62.29 146.949 60.9483 143.213 59.5705 139.193H59.4892C58.1068 143.213 56.7651 146.949 55.306 150.97L54.3302 153.613H64.6888L63.7537 150.97ZM53.1512 156.901L49.9844 165.516H46L56.9684 136.591H62.0461L73.0552 165.516H69.0346L65.904 156.901H53.1512ZM76.38 136.591H79.9533V165.512H76.38V136.591ZM86.2868 136.591H89.8602V165.512H86.2868V136.591ZM124.423 145.526H120.647C120.647 141.262 118.289 139.233 114.024 139.233C110.451 139.233 108.296 140.977 108.296 143.737C108.296 146.827 110.532 147.722 115.285 148.901C120.769 150.238 125.115 151.62 125.115 157.552C125.115 162.751 121.053 166.081 114.756 166.081C108.011 166.081 103.95 162.589 103.95 155.925H107.808C107.808 160.678 110.451 162.873 114.797 162.873C118.939 162.873 121.257 160.962 121.257 157.755C121.257 154.548 118.858 153.735 114.187 152.555C108.621 151.178 104.479 149.795 104.479 143.986C104.479 139.315 108.174 136.021 114.065 136.021C120.972 136.021 124.423 139.27 124.423 145.526ZM133.924 147.478C135.342 145.404 137.66 144.433 140.054 144.433C144.77 144.433 147.53 147.275 147.53 152.921V165.512H143.957V153.206C143.957 148.901 142.168 147.356 139.205 147.356C136.277 147.356 133.842 149.511 133.842 153.694V165.512H130.264V136.591H133.842V147.478H133.924ZM165.681 155.438C164.096 155.564 161.86 155.804 160.279 156.093C156.746 156.617 155.526 157.633 155.526 159.666C155.526 161.776 157.067 163.199 159.75 163.199C161.412 163.199 162.998 162.629 164.014 161.577C165.275 160.276 165.681 159.137 165.681 156.698V155.438ZM169.133 152.311V160.235C169.133 162.507 169.336 164.251 169.621 165.512H166.368C166.169 164.581 166.088 163.443 166.088 162.507H166.007C164.584 164.698 162.185 165.963 158.856 165.963C154.55 165.963 151.867 163.402 151.867 159.91C151.867 156.495 153.778 154.344 159.709 153.409C161.534 153.125 164.055 152.84 165.681 152.718V151.905C165.681 148.494 163.771 147.071 161.01 147.071C158.002 147.071 156.421 148.738 156.294 151.178H152.721C152.924 147.275 155.77 144.311 161.01 144.311C166.047 144.311 169.133 146.868 169.133 152.311ZM178.633 155.153C178.633 160.068 180.824 163.117 184.239 163.117C187.772 163.117 190.044 159.991 190.044 155.153C190.044 150.319 187.772 147.234 184.239 147.234C180.824 147.234 178.633 150.279 178.633 155.153ZM193.78 155.153C193.78 161.735 190.41 165.999 185.17 165.999C182.41 165.999 180.011 164.662 178.877 162.589H178.791V173.029H175.218V144.88H178.751V147.844H178.832C179.93 145.693 182.369 144.347 185.129 144.347C190.41 144.347 193.78 148.576 193.78 155.153ZM201.126 153.206H212.988C212.623 149.185 210.269 147.071 207.098 147.071C203.809 147.071 201.491 149.267 201.126 153.206ZM212.663 159.336H216.318C215.627 162.955 212.501 166.081 207.22 166.081C201.126 166.081 197.512 161.654 197.512 154.914C197.512 148.819 201.085 144.311 207.098 144.311C211.769 144.311 215.062 147.071 216.115 151.498C216.399 152.677 216.521 154.137 216.521 155.93H201.085C201.248 161.003 203.85 163.321 207.22 163.321C210.228 163.321 212.175 161.654 212.663 159.336ZM236.177 151.336H232.68C232.68 148.576 230.977 147.071 228.09 147.071C225.615 147.071 224.07 148.21 224.07 149.999C224.07 152.149 225.574 152.515 229.025 153.328C232.807 154.263 236.827 155.112 236.827 159.91C236.827 163.605 233.656 166.081 228.66 166.081C223.257 166.081 220.049 163.483 220.009 158.65H223.623C223.623 161.613 225.493 163.239 228.7 163.239C231.384 163.239 233.173 162.02 233.173 160.149C233.173 157.755 231.465 157.308 227.48 156.332C224.029 155.483 220.496 154.792 220.496 150.279C220.496 146.746 223.623 144.311 228.131 144.311C233.173 144.311 236.177 146.787 236.177 151.336Z" fill="black"/>
<path d="M136.787 71.2589H90.5283V26.0526C90.5283 25.4698 90.9981 25 91.5809 25H135.735C136.317 25 136.787 25.4698 136.787 26.0526V71.2589Z" fill="#8486EC"/>
<path d="M96.4733 117.518H91.6848C91.0478 117.518 90.5283 116.998 90.5283 116.361V71.2588H136.787V77.2038C136.787 99.4704 118.74 117.518 96.4733 117.518Z" fill="#397FC0"/>
<path d="M146.039 69.9173V26.2197C146.039 25.5466 146.586 25 147.259 25H190.956C192.149 25 192.745 26.4411 191.9 27.2858L148.325 70.8659C147.48 71.7062 146.039 71.1099 146.039 69.9173Z" fill="#FF667D"/>
<path d="M192.298 94.3883C192.298 107.164 181.944 117.518 169.169 117.518C156.393 117.518 146.039 107.164 146.039 94.3883C146.039 81.6128 156.393 71.2588 169.169 71.2588C181.944 71.2588 192.298 81.6128 192.298 94.3883Z" fill="#00BEA9"/>
</svg>
