<svg width="294" height="183" viewBox="0 0 294 183" fill="none" xmlns="http://www.w3.org/2000/svg">
<rect y="0.132812" width="293.11" height="181.97" rx="4" fill="white"/>
<path d="M112.064 87.2527V93.5162H88.1797V87.2527H112.064ZM102.242 77.8574V107.95C102.242 109.428 102.621 110.502 103.378 111.17C104.247 111.886 105.353 112.248 106.477 112.185C108.235 112.251 109.951 111.636 111.266 110.466L112.618 116.037C111.516 116.877 110.266 117.503 108.932 117.883C107.419 118.337 105.846 118.563 104.265 118.554C102.413 118.588 100.571 118.276 98.8332 117.633C97.3215 117.072 96.0296 116.04 95.1471 114.69C94.2677 113.338 93.8279 111.536 93.8279 109.286V80.191L102.242 77.8574Z" fill="#383838"/>
<path d="M127.235 118.57C125.329 118.602 123.439 118.224 121.692 117.461C120.061 116.721 118.703 115.485 117.812 113.931C116.855 112.312 116.375 110.213 116.371 107.634V87.2524H124.785V105.616C124.785 107.988 125.273 109.64 126.26 110.56C127.246 111.481 128.654 111.941 130.494 111.941C131.354 111.939 132.206 111.784 133.011 111.481C133.837 111.168 134.583 110.676 135.195 110.039C135.873 109.307 136.385 108.437 136.697 107.49C137.089 106.29 137.276 105.032 137.251 103.77V87.2524H145.665V117.96H138.166L137.861 112.617C136.966 114.525 135.495 116.103 133.654 117.129C131.669 118.139 129.462 118.634 127.235 118.57Z" fill="#383838"/>
<path d="M178.019 86.6596C180.398 86.5943 182.766 87.0012 184.987 87.8569C186.759 88.5621 188.338 89.6794 189.593 91.1161C190.739 92.4456 191.587 94.0047 192.082 95.689L184.222 98.5159C183.955 96.9464 183.228 95.4916 182.132 94.3366C181.04 93.3579 179.605 92.8517 178.141 92.9287C176.735 92.888 175.348 93.2599 174.15 93.9984C172.988 94.7913 172.107 95.9324 171.634 97.2577C171.011 98.9989 170.72 100.841 170.775 102.69C170.717 104.532 171.018 106.367 171.661 108.094C172.155 109.409 173.061 110.529 174.244 111.287C175.438 112.002 176.811 112.363 178.202 112.329C179.282 112.362 180.355 112.142 181.334 111.686C182.194 111.258 182.926 110.612 183.457 109.812C184.035 108.918 184.422 107.914 184.593 106.864L192.204 109.325C191.777 111.124 190.913 112.79 189.687 114.175C188.388 115.615 186.768 116.73 184.959 117.428C182.528 118.308 179.946 118.695 177.363 118.569C174.781 118.442 172.249 117.804 169.915 116.691C167.545 115.462 165.597 113.551 164.323 111.204C163.033 108.523 162.363 105.587 162.363 102.612C162.363 99.6375 163.033 96.7011 164.323 94.0206C165.591 91.692 167.519 89.7905 169.866 88.5553C172.384 87.2552 175.186 86.6037 178.019 86.6596Z" fill="#383838"/>
<path d="M214.065 98.3662C214.107 97.6132 213.994 96.8596 213.733 96.1521C213.472 95.4446 213.068 94.7983 212.546 94.2534C212.018 93.7549 211.395 93.3675 210.714 93.1143C210.034 92.861 209.309 92.747 208.583 92.779C207.165 92.7528 205.772 93.1608 204.592 93.9485C203.447 94.7245 202.608 96.0179 202.076 97.8286L194.87 95.6114C195.537 92.9513 197.166 90.6329 199.443 89.104C201.823 87.4744 204.999 86.6596 208.971 86.6596C211.386 86.6069 213.787 87.0366 216.033 87.9234C217.941 88.682 219.577 89.9973 220.728 91.6981C221.904 93.5919 222.483 95.7954 222.391 98.0226V110.494C222.391 112.05 223.13 112.828 224.608 112.828C225.274 112.833 225.937 112.73 226.57 112.523L226.082 117.739C224.832 118.311 223.466 118.584 222.091 118.537C220.761 118.561 219.44 118.31 218.211 117.8C217.107 117.351 216.164 116.578 215.506 115.583C214.817 114.448 214.476 113.135 214.525 111.808V111.558L216 111.314C215.778 112.823 215.065 114.216 213.971 115.278C212.826 116.386 211.455 117.233 209.952 117.761C206.619 118.937 202.978 118.906 199.665 117.672C198.247 117.118 197.027 116.153 196.162 114.901C195.309 113.542 194.883 111.959 194.937 110.356C194.899 109.316 195.076 108.281 195.458 107.314C195.839 106.346 196.417 105.469 197.154 104.735C198.632 103.283 200.74 102.291 203.478 101.758L215.024 99.4249L214.958 104.641L207.619 106.06C206.506 106.239 205.435 106.614 204.454 107.168C204.09 107.426 203.8 107.774 203.612 108.179C203.424 108.583 203.346 109.03 203.384 109.474C203.356 109.925 203.444 110.376 203.638 110.784C203.831 111.192 204.126 111.544 204.493 111.808C205.295 112.355 206.249 112.634 207.22 112.606C208.07 112.607 208.917 112.502 209.742 112.296C210.535 112.107 211.286 111.775 211.959 111.314C212.625 110.849 213.155 110.213 213.494 109.474C213.885 108.584 214.075 107.619 214.049 106.647L214.065 98.3662Z" fill="#383838"/>
<path d="M228.127 117.96V87.2524H235.438L235.992 93.272C236.684 91.3189 237.932 89.6115 239.584 88.3609C241.324 87.1635 243.404 86.559 245.515 86.6371C246.154 86.6335 246.791 86.6967 247.416 86.8255C247.909 86.9189 248.385 87.0832 248.83 87.3133L247.849 94.375C247.362 94.1955 246.856 94.0728 246.341 94.0092C245.578 93.9174 244.809 93.8767 244.041 93.8872C242.798 93.8895 241.575 94.1938 240.477 94.7741C239.303 95.3978 238.324 96.3339 237.65 97.479C236.865 98.8717 236.481 100.454 236.541 102.052V117.96H228.127Z" fill="#383838"/>
<path d="M266.756 118.57C263.827 118.642 260.925 117.989 258.309 116.669C255.96 115.437 254.03 113.535 252.766 111.203C251.472 108.524 250.801 105.587 250.801 102.612C250.801 99.6366 251.472 96.6997 252.766 94.0203C254.022 91.7002 255.932 89.7999 258.259 88.5549C260.743 87.26 263.512 86.6082 266.313 86.6593C269.072 86.5744 271.804 87.2207 274.233 88.5328C276.35 89.7208 278.081 91.4905 279.222 93.6322C280.394 95.8985 280.984 98.4202 280.94 100.971C280.94 101.791 280.94 102.567 280.879 103.305C280.818 104.042 280.774 104.696 280.696 105.267H256.191V99.408H277.01L272.964 100.888C272.964 98.3012 272.38 96.315 271.212 94.9293C270.045 93.5436 268.397 92.847 266.268 92.8396C264.847 92.804 263.447 93.1897 262.244 93.9482C261.069 94.7465 260.178 95.8975 259.7 97.2351C259.074 98.9967 258.783 100.86 258.841 102.728C258.779 104.567 259.102 106.398 259.788 108.105C260.337 109.415 261.284 110.52 262.493 111.264C263.817 111.949 265.285 112.306 266.775 112.306C268.265 112.306 269.734 111.949 271.057 111.264C272.172 110.563 273.067 109.562 273.64 108.376L280.331 110.959C279.681 112.548 278.66 113.959 277.354 115.072C275.968 116.25 274.36 117.137 272.626 117.683C270.728 118.287 268.747 118.586 266.756 118.57Z" fill="#383838"/>
<path d="M63.861 65.9865C57.0652 62.0648 45.1948 69.8999 37.3487 83.4913C35.0068 87.4937 33.2116 91.7918 32.0108 96.2708C27.4101 89.2589 20.6476 85.6143 16.3933 88.0699C11.8619 90.6862 11.9007 99.2335 16.4765 107.163C19.0152 111.558 22.4158 114.84 25.7167 116.445L25.7749 116.472L25.98 116.567C29.2088 118.085 33.1166 119.061 36.5699 118.507C40.1174 117.952 44.2082 115.491 46.4309 114.128C51.7966 111.206 57.517 105.364 61.9514 97.6787C69.8059 84.1094 70.6567 69.9109 63.861 65.9865Z" fill="#89C1FE"/>
<path d="M34.5658 77.5702C37.1817 73.0393 36.0882 67.5106 32.1233 65.2215C28.1585 62.9324 22.8237 64.7497 20.2078 69.2806C17.5919 73.8115 18.6855 79.3402 22.6503 81.6293C26.6152 83.9184 31.9499 82.101 34.5658 77.5702Z" fill="#FF9776"/>
<path d="M64.4097 115.375V115.854H62.0068V115.375H64.4097ZM63.5256 115.375V118.302H62.902V115.375H63.5256ZM68.1539 115.375V118.302H67.5414V116.899L67.6052 116.129L67.5276 116.367L66.7987 118.307H66.3553L65.618 116.367L65.5404 116.129L65.6042 116.899V118.302H64.9917V115.375H65.7732L66.3747 116.971L66.5797 117.54H66.5964L66.7931 116.971L67.4056 115.375H68.1539Z" fill="#383838"/>
</svg>
