<svg width="294" height="183" viewBox="0 0 294 183" fill="none" xmlns="http://www.w3.org/2000/svg">
<rect x="0.169922" y="0.132324" width="293.11" height="181.97" rx="4" fill="url(#paint0_linear_1209_655)"/>
<path d="M74.3797 96.1172V86.4126H75.5549V90.7342H80.7294V86.4126H81.9046V96.1172H80.7294V91.7767H75.5549V96.1172H74.3797ZM86.2474 96.2878C85.7862 96.2878 85.3677 96.2009 84.9917 96.0272C84.6158 95.8502 84.3173 95.5959 84.0961 95.2642C83.875 94.9294 83.7644 94.525 83.7644 94.0512C83.7644 93.6342 83.8466 93.2962 84.0108 93.0371C84.1751 92.7749 84.3947 92.5696 84.6695 92.4211C84.9443 92.2726 85.2476 92.1621 85.5793 92.0894C85.9142 92.0136 86.2506 91.9536 86.5886 91.9094C87.0309 91.8525 87.3894 91.8098 87.6643 91.7814C87.9423 91.7498 88.1444 91.6977 88.2708 91.625C88.4003 91.5524 88.4651 91.426 88.4651 91.246V91.2081C88.4651 90.7405 88.3371 90.3772 88.0813 90.1182C87.8285 89.8591 87.4447 89.7296 86.9298 89.7296C86.3959 89.7296 85.9773 89.8465 85.6741 90.0803C85.3708 90.314 85.1576 90.5636 85.0344 90.829L83.9729 90.4499C84.1625 90.0076 84.4152 89.6633 84.7311 89.4169C85.0502 89.1673 85.3977 88.9936 85.7736 88.8956C86.1527 88.7946 86.5254 88.744 86.8919 88.744C87.1257 88.744 87.3942 88.7724 87.6974 88.8293C88.0039 88.883 88.2992 88.9951 88.5835 89.1657C88.871 89.3363 89.1095 89.5938 89.2991 89.9381C89.4886 90.2825 89.5834 90.7437 89.5834 91.3218V96.1172H88.4651V95.1316H88.4082C88.3324 95.2895 88.206 95.4585 88.0291 95.6386C87.8522 95.8187 87.6169 95.9719 87.3231 96.0982C87.0293 96.2246 86.6708 96.2878 86.2474 96.2878ZM86.418 95.2832C86.8603 95.2832 87.2331 95.1963 87.5363 95.0226C87.8428 94.8488 88.0734 94.6245 88.2282 94.3497C88.3861 94.0749 88.4651 93.7858 88.4651 93.4826V92.459C88.4177 92.5159 88.3134 92.568 88.1523 92.6154C87.9944 92.6596 87.8112 92.6991 87.6027 92.7339C87.3973 92.7655 87.1967 92.7939 87.0009 92.8192C86.8082 92.8413 86.6518 92.8602 86.5318 92.876C86.2411 92.9139 85.9694 92.9755 85.7167 93.0608C85.4672 93.143 85.265 93.2677 85.1102 93.4352C84.9586 93.5994 84.8827 93.8237 84.8827 94.108C84.8827 94.4966 85.0265 94.7904 85.3139 94.9894C85.6046 95.1853 85.9726 95.2832 86.418 95.2832ZM91.6245 96.1172V88.8388H92.7049V89.9381H92.7807C92.9134 89.578 93.1535 89.2858 93.501 89.0615C93.8485 88.8372 94.2402 88.7251 94.6761 88.7251C94.7583 88.7251 94.8609 88.7266 94.9841 88.7298C95.1073 88.733 95.2005 88.7377 95.2637 88.744V89.8813C95.2258 89.8718 95.1389 89.8576 95.0031 89.8386C94.8704 89.8165 94.7298 89.8054 94.5814 89.8054C94.2276 89.8054 93.9116 89.8797 93.6337 90.0282C93.3588 90.1735 93.1408 90.3756 92.9797 90.6347C92.8218 90.8906 92.7428 91.1828 92.7428 91.5113V96.1172H91.6245ZM96.5893 96.1172V88.8388H97.6697V89.976H97.7645C97.9161 89.5875 98.1609 89.2858 98.499 89.071C98.837 88.853 99.2429 88.744 99.7168 88.744C100.197 88.744 100.597 88.853 100.916 89.071C101.238 89.2858 101.489 89.5875 101.669 89.976H101.745C101.931 89.6001 102.211 89.3016 102.584 89.0804C102.956 88.8562 103.403 88.744 103.925 88.744C104.575 88.744 105.108 88.9478 105.521 89.3553C105.935 89.7596 106.142 90.3899 106.142 91.246V96.1172H105.024V91.246C105.024 90.7089 104.877 90.3251 104.583 90.0945C104.289 89.8639 103.944 89.7486 103.546 89.7486C103.034 89.7486 102.637 89.9034 102.356 90.213C102.075 90.5194 101.934 90.9079 101.934 91.3786V96.1172H100.797V91.1322C100.797 90.7184 100.663 90.3851 100.394 90.1324C100.126 89.8765 99.7799 89.7486 99.3566 89.7486C99.066 89.7486 98.7943 89.826 98.5416 89.9808C98.292 90.1356 98.0899 90.3504 97.9351 90.6252C97.7834 90.8969 97.7076 91.2112 97.7076 91.5682V96.1172H96.5893ZM111.144 96.2688C110.487 96.2688 109.91 96.1124 109.414 95.7997C108.921 95.487 108.536 95.0494 108.258 94.4871C107.983 93.9248 107.846 93.2677 107.846 92.5159C107.846 91.7577 107.983 91.0959 108.258 90.5304C108.536 89.965 108.921 89.5259 109.414 89.2131C109.91 88.9004 110.487 88.744 111.144 88.744C111.801 88.744 112.376 88.9004 112.869 89.2131C113.365 89.5259 113.75 89.965 114.025 90.5304C114.303 91.0959 114.442 91.7577 114.442 92.5159C114.442 93.2677 114.303 93.9248 114.025 94.4871C113.75 95.0494 113.365 95.487 112.869 95.7997C112.376 96.1124 111.801 96.2688 111.144 96.2688ZM111.144 95.2642C111.643 95.2642 112.054 95.1363 112.376 94.8804C112.698 94.6245 112.937 94.2881 113.091 93.8711C113.246 93.4541 113.324 93.0024 113.324 92.5159C113.324 92.0294 113.246 91.5761 113.091 91.1559C112.937 90.7358 112.698 90.3962 112.376 90.1371C112.054 89.8781 111.643 89.7486 111.144 89.7486C110.645 89.7486 110.234 89.8781 109.912 90.1371C109.59 90.3962 109.351 90.7358 109.196 91.1559C109.041 91.5761 108.964 92.0294 108.964 92.5159C108.964 93.0024 109.041 93.4541 109.196 93.8711C109.351 94.2881 109.59 94.6245 109.912 94.8804C110.234 95.1363 110.645 95.2642 111.144 95.2642ZM117.267 91.7388V96.1172H116.149V88.8388H117.229V89.976H117.324C117.495 89.6064 117.754 89.3095 118.101 89.0852C118.449 88.8577 118.897 88.744 119.447 88.744C119.94 88.744 120.371 88.8451 120.741 89.0473C121.11 89.2463 121.398 89.5496 121.603 89.9571C121.808 90.3614 121.911 90.8732 121.911 91.4924V96.1172H120.793V91.5682C120.793 90.9964 120.644 90.551 120.347 90.2319C120.05 89.9097 119.643 89.7486 119.125 89.7486C118.768 89.7486 118.449 89.826 118.167 89.9808C117.889 90.1356 117.67 90.3614 117.509 90.6584C117.348 90.9553 117.267 91.3155 117.267 91.7388ZM124.414 98.8466C124.225 98.8466 124.056 98.8308 123.907 98.7992C123.759 98.7708 123.656 98.7423 123.599 98.7139L123.883 97.7283C124.155 97.7978 124.395 97.8231 124.604 97.8041C124.812 97.7852 124.997 97.692 125.158 97.5245C125.322 97.3603 125.472 97.0933 125.608 96.7237L125.817 96.1551L123.125 88.8388H124.338L126.347 94.6388H126.423L128.432 88.8388H129.645L126.556 97.1786C126.417 97.5545 126.245 97.8657 126.039 98.1121C125.834 98.3617 125.596 98.5465 125.324 98.6665C125.055 98.7866 124.752 98.8466 124.414 98.8466ZM142.835 89.4453H141.66C141.591 89.1073 141.469 88.8103 141.295 88.5545C141.125 88.2986 140.916 88.0838 140.67 87.91C140.426 87.7331 140.156 87.6004 139.859 87.512C139.562 87.4235 139.253 87.3793 138.931 87.3793C138.343 87.3793 137.811 87.5278 137.334 87.8247C136.86 88.1217 136.482 88.5592 136.201 89.1373C135.923 89.7154 135.784 90.4246 135.784 91.2649C135.784 92.1052 135.923 92.8144 136.201 93.3925C136.482 93.9706 136.86 94.4082 137.334 94.7051C137.811 95.002 138.343 95.1505 138.931 95.1505C139.253 95.1505 139.562 95.1063 139.859 95.0178C140.156 94.9294 140.426 94.7983 140.67 94.6245C140.916 94.4476 141.125 94.2312 141.295 93.9754C141.469 93.7163 141.591 93.4194 141.66 93.0845H142.835C142.747 93.5805 142.586 94.0243 142.352 94.416C142.118 94.8078 141.827 95.141 141.48 95.4159C141.132 95.6876 140.742 95.8945 140.31 96.0366C139.88 96.1788 139.42 96.2499 138.931 96.2499C138.103 96.2499 137.367 96.0477 136.722 95.6433C136.078 95.239 135.571 94.664 135.201 93.9185C134.832 93.173 134.647 92.2884 134.647 91.2649C134.647 90.2414 134.832 89.3569 135.201 88.6113C135.571 87.8658 136.078 87.2909 136.722 86.8865C137.367 86.4821 138.103 86.28 138.931 86.28C139.42 86.28 139.88 86.351 140.31 86.4932C140.742 86.6354 141.132 86.8438 141.48 87.1187C141.827 87.3904 142.118 87.7221 142.352 88.1138C142.586 88.5023 142.747 88.9462 142.835 89.4453ZM146.724 96.2878C146.263 96.2878 145.845 96.2009 145.469 96.0272C145.093 95.8502 144.794 95.5959 144.573 95.2642C144.352 94.9294 144.241 94.525 144.241 94.0512C144.241 93.6342 144.323 93.2962 144.488 93.0371C144.652 92.7749 144.872 92.5696 145.146 92.4211C145.421 92.2726 145.725 92.1621 146.056 92.0894C146.391 92.0136 146.727 91.9536 147.066 91.9094C147.508 91.8525 147.866 91.8098 148.141 91.7814C148.419 91.7498 148.621 91.6977 148.748 91.625C148.877 91.5524 148.942 91.426 148.942 91.246V91.2081C148.942 90.7405 148.814 90.3772 148.558 90.1182C148.305 89.8591 147.922 89.7296 147.407 89.7296C146.873 89.7296 146.454 89.8465 146.151 90.0803C145.848 90.314 145.634 90.5636 145.511 90.829L144.45 90.4499C144.639 90.0076 144.892 89.6633 145.208 89.4169C145.527 89.1673 145.875 88.9936 146.25 88.8956C146.63 88.7946 147.002 88.744 147.369 88.744C147.603 88.744 147.871 88.7724 148.174 88.8293C148.481 88.883 148.776 88.9951 149.06 89.1657C149.348 89.3363 149.586 89.5938 149.776 89.9381C149.966 90.2825 150.06 90.7437 150.06 91.3218V96.1172H148.942V95.1316H148.885C148.809 95.2895 148.683 95.4585 148.506 95.6386C148.329 95.8187 148.094 95.9719 147.8 96.0982C147.506 96.2246 147.148 96.2878 146.724 96.2878ZM146.895 95.2832C147.337 95.2832 147.71 95.1963 148.013 95.0226C148.32 94.8488 148.55 94.6245 148.705 94.3497C148.863 94.0749 148.942 93.7858 148.942 93.4826V92.459C148.895 92.5159 148.79 92.568 148.629 92.6154C148.471 92.6596 148.288 92.6991 148.08 92.7339C147.874 92.7655 147.674 92.7939 147.478 92.8192C147.285 92.8413 147.129 92.8602 147.009 92.876C146.718 92.9139 146.446 92.9755 146.194 93.0608C145.944 93.143 145.742 93.2677 145.587 93.4352C145.435 93.5994 145.36 93.8237 145.36 94.108C145.36 94.4966 145.503 94.7904 145.791 94.9894C146.081 95.1853 146.45 95.2832 146.895 95.2832ZM152.101 96.1172V88.8388H153.182V89.9381H153.258C153.39 89.578 153.63 89.2858 153.978 89.0615C154.325 88.8372 154.717 88.7251 155.153 88.7251C155.235 88.7251 155.338 88.7266 155.461 88.7298C155.584 88.733 155.677 88.7377 155.741 88.744V89.8813C155.703 89.8718 155.616 89.8576 155.48 89.8386C155.347 89.8165 155.207 89.8054 155.058 89.8054C154.704 89.8054 154.389 89.8797 154.111 90.0282C153.836 90.1735 153.618 90.3756 153.457 90.6347C153.299 90.8906 153.22 91.1828 153.22 91.5113V96.1172H152.101ZM159.896 96.2688C159.195 96.2688 158.59 96.114 158.081 95.8044C157.576 95.4917 157.186 95.0558 156.911 94.4966C156.639 93.9343 156.504 93.2804 156.504 92.5348C156.504 91.7893 156.639 91.1322 156.911 90.5636C157.186 89.9918 157.568 89.5464 158.058 89.2273C158.551 88.9051 159.126 88.744 159.783 88.744C160.162 88.744 160.536 88.8072 160.906 88.9335C161.275 89.0599 161.612 89.2652 161.915 89.5496C162.218 89.8307 162.46 90.2035 162.64 90.6679C162.82 91.1322 162.91 91.704 162.91 92.3832V92.8571H157.3V91.8904H161.773C161.773 91.4797 161.691 91.1133 161.526 90.7911C161.365 90.4688 161.135 90.2145 160.835 90.0282C160.538 89.8418 160.187 89.7486 159.783 89.7486C159.337 89.7486 158.952 89.8591 158.626 90.0803C158.304 90.2983 158.056 90.5826 157.882 90.9332C157.709 91.2839 157.622 91.6598 157.622 92.061V92.7054C157.622 93.2551 157.717 93.7211 157.906 94.1033C158.099 94.4824 158.366 94.7714 158.707 94.9705C159.048 95.1663 159.445 95.2642 159.896 95.2642C160.19 95.2642 160.455 95.2232 160.692 95.141C160.932 95.0558 161.139 94.9294 161.313 94.762C161.487 94.5914 161.621 94.3797 161.716 94.127L162.796 94.4303C162.683 94.7967 162.491 95.1189 162.223 95.3969C161.954 95.6718 161.623 95.8866 161.228 96.0414C160.833 96.193 160.389 96.2688 159.896 96.2688ZM173.823 88.8388C173.766 88.3586 173.535 87.9858 173.131 87.7205C172.727 87.4551 172.231 87.3224 171.643 87.3224C171.214 87.3224 170.838 87.3919 170.515 87.5309C170.196 87.6699 169.947 87.8611 169.767 88.1043C169.59 88.3475 169.501 88.624 169.501 88.9335C169.501 89.1926 169.563 89.4153 169.686 89.6017C169.813 89.7849 169.974 89.9381 170.169 90.0613C170.365 90.1814 170.571 90.2809 170.786 90.3599C171 90.4357 171.198 90.4973 171.378 90.5447L172.363 90.81C172.616 90.8764 172.897 90.968 173.207 91.0848C173.52 91.2017 173.818 91.3613 174.102 91.5634C174.39 91.7625 174.627 92.0183 174.813 92.3311C175 92.6438 175.093 93.0277 175.093 93.4826C175.093 94.007 174.955 94.4808 174.681 94.9041C174.409 95.3274 174.011 95.6639 173.486 95.9134C172.965 96.163 172.332 96.2878 171.586 96.2878C170.891 96.2878 170.29 96.1756 169.781 95.9513C169.275 95.727 168.877 95.4143 168.587 95.0131C168.299 94.6119 168.137 94.146 168.099 93.6152H169.312C169.343 93.9817 169.467 94.2849 169.681 94.525C169.899 94.762 170.174 94.9389 170.506 95.0558C170.841 95.1695 171.201 95.2263 171.586 95.2263C172.035 95.2263 172.438 95.1537 172.795 95.0084C173.152 94.8599 173.434 94.6546 173.643 94.3924C173.851 94.127 173.956 93.8174 173.956 93.4636C173.956 93.1414 173.866 92.8792 173.685 92.677C173.505 92.4748 173.268 92.3106 172.975 92.1842C172.681 92.0578 172.363 91.9473 172.022 91.8525L170.828 91.5113C170.07 91.2933 169.47 90.9822 169.027 90.5778C168.585 90.1735 168.364 89.6443 168.364 88.9904C168.364 88.4471 168.511 87.9732 168.805 87.5688C169.102 87.1613 169.5 86.8454 169.999 86.6211C170.501 86.3937 171.062 86.28 171.681 86.28C172.307 86.28 172.863 86.3921 173.349 86.6164C173.836 86.8375 174.221 87.1408 174.505 87.5262C174.793 87.9116 174.944 88.3491 174.96 88.8388H173.823ZM179.925 96.2688C179.224 96.2688 178.619 96.114 178.11 95.8044C177.605 95.4917 177.215 95.0558 176.94 94.4966C176.668 93.9343 176.532 93.2804 176.532 92.5348C176.532 91.7893 176.668 91.1322 176.94 90.5636C177.215 89.9918 177.597 89.5464 178.086 89.2273C178.579 88.9051 179.154 88.744 179.811 88.744C180.19 88.744 180.565 88.8072 180.934 88.9335C181.304 89.0599 181.64 89.2652 181.944 89.5496C182.247 89.8307 182.489 90.2035 182.669 90.6679C182.849 91.1322 182.939 91.704 182.939 92.3832V92.8571H177.328V91.8904H181.801C181.801 91.4797 181.719 91.1133 181.555 90.7911C181.394 90.4688 181.163 90.2145 180.863 90.0282C180.566 89.8418 180.216 89.7486 179.811 89.7486C179.366 89.7486 178.98 89.8591 178.655 90.0803C178.333 90.2983 178.085 90.5826 177.911 90.9332C177.737 91.2839 177.65 91.6598 177.65 92.061V92.7054C177.65 93.2551 177.745 93.7211 177.935 94.1033C178.127 94.4824 178.394 94.7714 178.736 94.9705C179.077 95.1663 179.473 95.2642 179.925 95.2642C180.219 95.2642 180.484 95.2232 180.721 95.141C180.961 95.0558 181.168 94.9294 181.342 94.762C181.516 94.5914 181.65 94.3797 181.745 94.127L182.825 94.4303C182.711 94.7967 182.52 95.1189 182.252 95.3969C181.983 95.6718 181.651 95.8866 181.257 96.0414C180.862 96.193 180.418 96.2688 179.925 96.2688ZM184.64 96.1172V88.8388H185.72V89.9381H185.796C185.929 89.578 186.169 89.2858 186.516 89.0615C186.864 88.8372 187.256 88.7251 187.691 88.7251C187.774 88.7251 187.876 88.7266 187.999 88.7298C188.123 88.733 188.216 88.7377 188.279 88.744V89.8813C188.241 89.8718 188.154 89.8576 188.018 89.8386C187.886 89.8165 187.745 89.8054 187.597 89.8054C187.243 89.8054 186.927 89.8797 186.649 90.0282C186.374 90.1735 186.156 90.3756 185.995 90.6347C185.837 90.8906 185.758 91.1828 185.758 91.5113V96.1172H184.64ZM195.778 88.8388L193.086 96.1172H191.949L189.258 88.8388H190.471L192.48 94.6388H192.556L194.565 88.8388H195.778ZM197.254 96.1172V88.8388H198.372V96.1172H197.254ZM197.822 87.6257C197.604 87.6257 197.417 87.5515 197.259 87.403C197.104 87.2545 197.026 87.076 197.026 86.8675C197.026 86.659 197.104 86.4806 197.259 86.3321C197.417 86.1836 197.604 86.1094 197.822 86.1094C198.04 86.1094 198.227 86.1836 198.382 86.3321C198.54 86.4806 198.619 86.659 198.619 86.8675C198.619 87.076 198.54 87.2545 198.382 87.403C198.227 87.5515 198.04 87.6257 197.822 87.6257ZM203.377 96.2688C202.695 96.2688 202.107 96.1077 201.614 95.7855C201.122 95.4633 200.743 95.0194 200.477 94.454C200.212 93.8885 200.079 93.2425 200.079 92.5159C200.079 91.7767 200.215 91.1243 200.487 90.5589C200.762 89.9902 201.144 89.5464 201.633 89.2273C202.126 88.9051 202.701 88.744 203.358 88.744C203.87 88.744 204.331 88.8388 204.742 89.0283C205.153 89.2179 205.489 89.4832 205.751 89.8244C206.013 90.1656 206.176 90.5636 206.239 91.0185H205.121C205.036 90.6868 204.846 90.393 204.552 90.1371C204.262 89.8781 203.87 89.7486 203.377 89.7486C202.941 89.7486 202.559 89.8623 202.231 90.0898C201.905 90.314 201.651 90.6315 201.468 91.0422C201.288 91.4497 201.197 91.9283 201.197 92.478C201.197 93.0403 201.286 93.5299 201.463 93.9469C201.643 94.3639 201.896 94.6877 202.221 94.9183C202.55 95.1489 202.935 95.2642 203.377 95.2642C203.668 95.2642 203.932 95.2137 204.169 95.1126C204.405 95.0115 204.606 94.8662 204.77 94.6767C204.935 94.4871 205.052 94.2597 205.121 93.9943H206.239C206.176 94.4239 206.02 94.8109 205.77 95.1553C205.524 95.4964 205.197 95.7681 204.789 95.9703C204.385 96.1693 203.914 96.2688 203.377 96.2688ZM210.926 96.2688C210.224 96.2688 209.619 96.114 209.111 95.8044C208.605 95.4917 208.215 95.0558 207.94 94.4966C207.669 93.9343 207.533 93.2804 207.533 92.5348C207.533 91.7893 207.669 91.1322 207.94 90.5636C208.215 89.9918 208.598 89.5464 209.087 89.2273C209.58 88.9051 210.155 88.744 210.812 88.744C211.191 88.744 211.565 88.8072 211.935 88.9335C212.305 89.0599 212.641 89.2652 212.944 89.5496C213.248 89.8307 213.489 90.2035 213.669 90.6679C213.849 91.1322 213.939 91.704 213.939 92.3832V92.8571H208.329V91.8904H212.802C212.802 91.4797 212.72 91.1133 212.556 90.7911C212.395 90.4688 212.164 90.2145 211.864 90.0282C211.567 89.8418 211.216 89.7486 210.812 89.7486C210.367 89.7486 209.981 89.8591 209.656 90.0803C209.334 90.2983 209.086 90.5826 208.912 90.9332C208.738 91.2839 208.651 91.6598 208.651 92.061V92.7054C208.651 93.2551 208.746 93.7211 208.936 94.1033C209.128 94.4824 209.395 94.7714 209.736 94.9705C210.078 95.1663 210.474 95.2642 210.926 95.2642C211.22 95.2642 211.485 95.2232 211.722 95.141C211.962 95.0558 212.169 94.9294 212.343 94.762C212.516 94.5914 212.651 94.3797 212.745 94.127L213.826 94.4303C213.712 94.7967 213.521 95.1189 213.252 95.3969C212.984 95.6718 212.652 95.8866 212.257 96.0414C211.862 96.193 211.419 96.2688 210.926 96.2688ZM220.796 90.4688L219.792 90.7532C219.728 90.5857 219.635 90.423 219.512 90.2651C219.392 90.104 219.228 89.9713 219.019 89.867C218.811 89.7628 218.544 89.7107 218.218 89.7107C217.773 89.7107 217.402 89.8133 217.105 90.0187C216.811 90.2209 216.664 90.4783 216.664 90.7911C216.664 91.0691 216.765 91.2886 216.967 91.4497C217.17 91.6108 217.485 91.7451 217.915 91.8525L218.995 92.1179C219.646 92.2758 220.131 92.5175 220.45 92.8429C220.769 93.1651 220.929 93.5805 220.929 94.0891C220.929 94.5061 220.809 94.8788 220.569 95.2074C220.332 95.5359 220 95.795 219.574 95.9845C219.147 96.1741 218.651 96.2688 218.086 96.2688C217.343 96.2688 216.729 96.1077 216.242 95.7855C215.756 95.4633 215.448 94.9926 215.318 94.3734L216.38 94.108C216.481 94.4998 216.672 94.7936 216.953 94.9894C217.237 95.1853 217.609 95.2832 218.067 95.2832C218.588 95.2832 219.002 95.1726 219.308 94.9515C219.618 94.7272 219.773 94.4587 219.773 94.146C219.773 93.8932 219.684 93.6816 219.507 93.511C219.33 93.3372 219.059 93.2077 218.692 93.1224L217.479 92.8381C216.813 92.6802 216.323 92.4353 216.01 92.1036C215.701 91.7688 215.546 91.3502 215.546 90.8479C215.546 90.4372 215.661 90.074 215.892 89.7581C216.126 89.4422 216.443 89.1942 216.844 89.0141C217.249 88.834 217.707 88.744 218.218 88.744C218.939 88.744 219.504 88.902 219.915 89.2179C220.329 89.5338 220.622 89.9508 220.796 90.4688Z" fill="#65758B"/>
<defs>
<linearGradient id="paint0_linear_1209_655" x1="76.2734" y1="-47.1146" x2="239.359" y2="215.578" gradientUnits="userSpaceOnUse">
<stop stop-color="#FCF2D4" stop-opacity="0.1"/>
<stop offset="1" stop-color="#7BD1A0" stop-opacity="0.1"/>
</linearGradient>
</defs>
</svg>
