<svg width="238" height="183" viewBox="0 0 238 183" fill="none" xmlns="http://www.w3.org/2000/svg">
<rect x="0.480469" y="0.132812" width="282.37" height="181.97" rx="4" fill="white"/>
<path d="M197.18 129.041C197.361 129.007 197.424 128.928 197.47 128.709C197.419 128.388 197.409 128.047 197.358 127.725C196.295 120.866 195.955 113.968 196.176 107.006C196.321 102.004 196.607 96.986 196.952 91.9899C197.055 90.5111 196.727 90.7619 198.308 90.1268C199.725 89.5672 201.143 89.0076 202.561 88.4479L206.815 86.769C210.4 85.351 213.929 83.8113 217.461 82.1715C218.882 81.5118 220.322 80.8928 221.837 80.436L221.918 80.3983L222.121 80.3041C222.264 80.1881 222.289 80.0286 222.232 79.9069C222.176 79.7851 222.079 79.6821 221.897 79.7169L221.354 79.8213C220.667 80.0417 219.998 80.3027 219.349 80.6042C217.441 81.4901 215.573 82.3571 213.647 83.2024C210.461 84.6319 207.22 85.9397 203.959 87.2069C203.069 87.5215 202.197 87.8767 201.326 88.2319C200.071 88.7162 198.834 89.241 197.638 89.747C197.172 89.9137 197.113 89.892 197.109 89.3512C197.13 89.2918 197.111 89.2512 197.093 89.2106L197.2 86.8909C197.361 83.4113 197.541 79.9723 198.002 76.5015C198.081 75.8229 198.123 75.0632 198.225 74.3253L198.297 73.206L198.296 72.5652C198.264 72.2839 198.107 72.1592 197.948 72.1346C197.748 72.1288 197.585 72.2042 197.461 72.3608C197.355 72.558 197.33 72.7174 197.246 72.8552C197.184 72.9335 197.162 72.9929 197.14 73.0523C195.641 76.413 194.639 79.8883 193.656 83.4041C193.033 85.5687 192.507 87.8362 191.943 90.0225C191.825 90.6198 191.686 91.2766 191.509 91.8522C191.395 92.3495 191.167 92.6032 190.761 92.7917C189.706 93.2817 188.669 93.8124 187.633 94.343C186.374 94.9273 185.116 95.5116 183.876 96.1365C181.806 97.0977 179.735 98.059 177.703 99.1014C176.36 99.8234 175.115 100.648 173.983 101.717C173.633 102.027 173.281 102.437 173.007 102.91C172.836 103.286 172.827 103.586 173.021 103.792C173.134 104.035 173.313 104.1 173.516 104.006C173.697 103.971 173.803 103.774 173.727 103.612C173.62 103.168 173.929 102.877 174.178 102.564C174.634 102.056 175.105 101.689 175.554 101.382C176.6 100.551 177.742 99.8234 178.96 99.258L178.903 99.1362L190.313 93.7399L190.516 93.6456C190.719 93.5514 190.863 93.4354 191.019 93.5601C191.157 93.6442 191.111 93.8631 191.024 94.1009L190.958 94.2792L189.867 99.4739C189.081 103.096 188.295 106.717 187.55 110.32C187.241 111.993 186.851 113.704 186.442 115.374C186.241 116.109 186.08 116.825 185.897 117.601L185.854 117.72C185.786 117.998 185.739 118.217 185.477 118.29C184.303 118.736 183.341 119.429 182.358 120.182C182.358 120.182 182.318 120.201 182.337 120.241C182.193 120.357 182.153 120.376 182.015 120.292C181.996 120.251 182.039 120.132 182.061 120.073L182.083 120.014C182.534 118.965 183.12 118.101 183.843 117.321C184.111 117.049 184.342 116.695 184.801 116.728C185.123 116.678 185.251 116.421 185.178 116.158C185.127 115.837 184.911 115.69 184.549 115.76C184.368 115.795 184.243 115.951 184.018 116.105C182.843 117.292 181.905 118.567 181.336 120.212C181.271 120.391 181.187 120.528 181.141 120.747C181.045 121.285 181.417 121.556 181.945 121.311C182.189 121.198 182.395 121.004 182.66 120.831C183.378 120.251 184.114 119.712 184.988 119.257C185.11 119.2 185.254 119.084 185.391 119.168C185.529 119.252 185.526 119.352 185.461 119.531L185.439 119.59C185.257 120.366 185.074 121.141 184.872 121.877C184.823 122.196 184.755 122.474 184.806 122.796C184.894 123.199 185.207 123.448 185.654 123.241C185.776 123.184 185.938 123.109 186.041 123.012C187.005 122.219 187.572 121.314 187.726 120.157C187.811 119.278 187.547 118.71 186.856 118.39C186.58 118.222 186.464 118.078 186.551 117.84C186.635 117.703 186.66 117.543 186.685 117.384C186.666 117.343 186.688 117.284 186.709 117.224C187.437 114.221 188.105 111.197 188.733 108.192C189.735 103.335 190.737 98.4779 191.817 93.6833C191.934 93.086 192.265 92.7351 192.771 92.5495C193.277 92.364 193.764 92.1378 194.251 91.9116C194.738 91.6854 195.225 91.4593 195.731 91.2737C196.34 90.991 196.34 90.991 196.36 91.6724C196.317 91.7913 196.314 91.8913 196.33 92.0319C196.282 92.9917 196.216 93.9109 196.127 94.8895C196.06 95.8087 196.053 96.7496 195.965 97.7283C195.675 103.587 195.366 109.405 195.576 115.278C195.713 118.867 196.111 122.382 196.529 125.939L196.835 128.511L196.848 128.751L196.867 128.792C196.961 128.995 197.08 129.039 197.18 129.041ZM195.792 90.5546L192.691 91.8464C192.407 91.9783 192.307 91.9754 192.378 91.597C192.34 91.5158 192.402 91.4375 192.405 91.3375L192.449 91.2186C193.38 86.7401 194.648 82.3515 196.076 77.9875C196.408 76.8958 196.8 75.8259 197.229 74.8371C197.229 74.8371 197.251 74.7776 197.291 74.7588C197.294 74.6587 197.316 74.5993 197.416 74.6022C197.494 74.6645 197.491 74.7646 197.448 74.8835L197.4 75.8432C197.016 80.1173 196.591 84.4102 196.507 88.693L196.458 89.012C196.474 89.1526 196.427 89.3715 196.462 89.5527C196.507 90.0747 196.298 90.369 195.792 90.5546ZM185.78 122.343C185.677 122.441 185.618 122.419 185.599 122.378C185.539 122.356 185.561 122.297 185.542 122.256C185.613 121.878 185.663 121.559 185.793 121.202C185.91 120.605 186.047 120.048 186.224 119.473C186.229 119.273 186.216 119.032 186.457 119.019C186.698 119.006 186.951 119.234 187.024 119.496C187.093 119.858 187.022 120.237 186.951 120.615C186.772 121.291 186.395 121.861 185.78 122.343ZM201.584 115.795C201.83 115.582 202.039 115.288 202.186 115.072C202.94 113.932 203.656 112.711 204.291 111.528C204.674 110.758 205.035 110.048 205.455 109.359C205.539 109.222 205.583 109.103 205.723 109.087C205.883 109.111 205.858 109.271 205.874 109.412C205.916 110.034 206.036 110.718 206.219 111.324C206.593 112.236 207.144 112.572 208.072 112.339C208.313 112.326 208.556 112.213 208.778 112.159C210.183 111.359 211.412 110.393 212.488 109.203C213.751 107.778 215.073 106.374 216.414 105.011C216.62 104.817 217.007 104.588 216.656 104.257C216.384 103.989 216.153 104.343 215.925 104.597C214.79 105.765 213.636 106.893 212.598 108.165C211.725 109.261 210.64 110.11 209.554 110.96C209.145 111.248 208.695 111.556 208.189 111.741C207.421 111.999 207.027 111.788 206.768 111.019C206.508 110.351 206.428 109.648 206.448 108.948C206.479 108.588 206.49 108.188 206.48 107.847C206.448 107.566 206.354 107.363 206.135 107.317C205.838 107.208 205.729 107.505 205.664 107.683C205.455 107.978 205.284 108.353 205.094 108.688C204.969 108.845 204.847 108.901 204.734 108.658C204.697 108.576 204.7 108.476 204.602 108.374C204.301 107.724 203.725 107.547 203.092 107.989C202.889 108.084 202.723 108.259 202.599 108.416C201.124 110.235 200.304 112.294 200.234 114.695C200.228 114.895 200.241 115.136 200.295 115.357C200.415 116.042 200.991 116.219 201.584 115.795ZM201.017 115.318C200.779 115.231 200.829 114.912 200.816 114.672C200.879 112.471 201.716 110.553 203.047 108.849C203.171 108.692 203.274 108.595 203.396 108.539C203.762 108.369 203.999 108.456 204.091 108.759C204.214 109.343 204.237 109.925 203.782 110.432C203.595 110.667 203.448 110.883 203.599 111.208C203.734 111.392 203.569 111.567 203.504 111.746C202.931 112.851 202.239 113.912 201.529 114.933C201.423 115.13 201.314 115.427 201.017 115.318ZM214.835 132.737C215.165 132.386 215.418 131.973 215.629 131.578C216.454 130.06 217.157 128.599 217.766 126.934C219.745 121.525 220.751 115.827 221.139 110.072C221.159 109.371 221.376 108.777 221.753 108.207C223.751 105.602 225.652 102.893 227.963 100.538L229.369 98.9963C229.494 98.8398 229.618 98.6832 229.724 98.486C229.768 98.3671 229.771 98.2671 229.673 98.1641C229.558 98.0206 229.436 98.0772 229.273 98.1525L229.086 98.3874C226.585 101.078 224.122 103.85 221.972 106.872C221.847 107.028 221.763 107.166 221.66 107.263C221.617 107.382 221.555 107.46 221.436 107.417C221.317 107.373 221.301 107.233 221.323 107.173L221.418 105.254C221.472 104.094 221.604 102.996 221.576 101.874C221.507 101.512 221.497 101.171 221.386 100.828C221.182 100.281 220.725 100.148 220.292 100.596C220.105 100.83 219.937 101.106 219.809 101.363C218.968 102.74 218.284 104.242 217.74 105.728L217.178 107.173C217.156 107.233 217.091 107.411 216.931 107.387C216.812 107.343 216.837 107.184 216.821 107.043C216.877 105.783 216.934 104.523 217.131 103.247C217.162 102.888 217.192 102.528 217.501 102.237C217.626 102.08 217.65 101.921 217.615 101.74C217.621 101.539 217.546 101.377 217.346 101.371C217.167 101.306 217.024 101.422 216.98 101.541C216.793 101.776 216.744 102.095 216.676 102.373C216.411 103.927 216.283 105.566 216.277 107.147C216.269 107.447 216.319 107.769 216.351 108.051C216.364 108.291 216.437 108.554 216.756 108.603C217.034 108.671 217.221 108.436 217.308 108.198C217.498 107.864 217.647 107.547 217.778 107.191C218.43 105.408 219.242 103.649 220.132 101.953C220.279 101.737 220.406 101.48 220.572 101.305C220.696 101.148 220.834 101.232 220.869 101.413C221.02 101.738 220.97 102.057 220.999 102.438C221.012 104.061 220.804 105.737 220.754 107.437C220.75 108.278 220.467 109.051 219.966 109.777C217.162 113.941 215.109 118.447 213.826 123.336C213.178 125.66 212.767 128.071 212.817 130.516C212.818 131.156 212.879 131.819 213.121 132.447C213.436 133.337 214.174 133.438 214.835 132.737ZM214.468 132.265C214.116 132.676 213.878 132.589 213.671 132.142C213.539 131.858 213.529 131.517 213.478 131.196C213.313 129.989 213.469 128.732 213.626 127.475C214.269 123.229 215.667 119.224 217.521 115.353C218.224 113.892 218.987 112.452 219.909 111.037C219.993 110.899 220.037 110.781 220.14 110.683C220.183 110.565 220.267 110.427 220.427 110.451C220.586 110.476 220.562 110.636 220.518 110.754L220.509 111.055C219.934 116.404 219.08 121.686 217.21 126.798C216.644 128.344 215.979 129.886 215.138 131.264C214.907 131.617 214.736 131.993 214.468 132.265Z" fill="#4F4F4F"/>
<path d="M40.0898 88.298C42.2213 96.0302 60.1934 94.1912 57.7901 87.6293C56.8079 84.9544 53.4016 84.2021 49.7445 83.8259C47.1532 83.5542 43.2871 83.2617 44.123 81.5272C45.3769 78.9567 54.0076 80.0434 54.551 82.572H57.8528C57.3722 77.5148 45.0843 75.7385 41.4899 80.1897C40.2779 81.6943 40.7585 83.5124 42.1795 84.6827C43.9976 86.1664 46.9442 86.25 50.9357 86.7516C51.9179 86.877 55.1988 87.2322 54.76 88.904C54.0494 91.6416 44.1648 91.5372 43.3916 88.298H40.0898ZM59.5687 93H62.8915V86.6471H69.9758C74.3852 86.6471 76.8093 84.6827 76.8093 82.2586C76.8093 79.8135 74.3852 77.8283 69.9758 77.8283H59.5687V93ZM62.8915 84.0558V80.4405H69.9758C72.5044 80.4405 73.5075 81.2555 73.5075 82.2586C73.5075 83.2408 72.5044 84.0558 69.9758 84.0558H62.8915ZM77.9661 93H81.2888V86.6471H86.6804L91.5914 93H95.6246L90.5883 86.459C93.5766 85.9157 95.2067 84.2439 95.2067 82.2586C95.2067 79.8135 92.7825 77.8283 88.3731 77.8283H77.9661V93ZM81.2888 84.0558V80.4405H88.3731C90.9017 80.4405 91.9048 81.2555 91.9048 82.2586C91.9048 83.2408 90.9017 84.0558 88.3731 84.0558H81.2888ZM97.4042 93H100.706V77.891H97.4042V93ZM102.7 93H106.001V81.8406L118.77 93H121.988V77.891H118.686V89.0503L105.897 77.891H102.7V93ZM133.895 93.2717C135.065 93.2717 136.215 93.1463 137.281 92.9164C138.597 92.6238 139.809 92.1432 140.771 91.5372V93H144.093V84.1185H137.03V86.7098H140.75L140.687 87.1695C140.373 88.6115 138.723 89.928 136.403 90.4087C135.609 90.5759 134.752 90.6804 133.895 90.6804C129.548 90.6804 126.644 88.3398 126.644 85.4768C126.644 82.6138 129.548 80.2524 133.895 80.2524C136.716 80.2524 138.806 81.2137 140.248 82.8019L142.923 81.3182C140.875 79.0194 137.74 77.6611 133.895 77.6611C127.73 77.6611 123.342 81.1719 123.342 85.4768C123.342 89.7609 127.73 93.2717 133.895 93.2717ZM146.086 93H149.388V86.668H159.586V84.0767H149.388V80.4823H162.762V77.891H146.086V93ZM164.341 93H181.727V90.4087H167.642V77.891H164.341V93ZM182.677 93H186.125L188.298 89.4892H199.52L201.694 93H205.163L195.8 77.891H192.039L182.677 93ZM189.928 86.8979L193.899 80.5659L197.911 86.8979H189.928ZM210.4 93H213.702V80.4823H221.56V77.891H202.564V80.4823H210.4V93ZM222.288 88.298C224.419 96.0302 242.391 94.1912 239.988 87.6293C239.006 84.9544 235.599 84.2021 231.942 83.8259C229.351 83.5542 225.485 83.2617 226.321 81.5272C227.575 78.9567 236.205 80.0434 236.749 82.572H240.051C239.57 77.5148 227.282 75.7385 223.688 80.1897C222.476 81.6943 222.956 83.5124 224.377 84.6827C226.195 86.1664 229.142 86.25 233.133 86.7516C234.116 86.877 237.397 87.2322 236.958 88.904C236.247 91.6416 226.363 91.5372 225.589 88.298H222.288Z" fill="#00A7CA"/>
</svg>
