<svg width="670" height="55" viewBox="0 0 670 55" fill="none" xmlns="http://www.w3.org/2000/svg">
<path d="M624.174 27.066L627.238 27.1663C633.809 27.3815 639.081 32.191 639.317 38.1852L639.427 40.9803L639.537 38.1852C639.773 32.191 645.046 27.3815 651.617 27.1663L655.18 27.066L651.617 26.9657C645.046 26.7505 639.773 21.941 639.537 15.9468L639.427 13.1517L639.317 15.9468C639.081 21.941 633.809 26.7505 627.238 26.9657L624.174 27.066Z" fill="#955F00"/>
<path d="M624.174 27.066L627.238 27.1663C633.809 27.3815 639.081 32.191 639.317 38.1852L639.427 40.9803M624.174 27.066L627.238 26.9657C633.809 26.7505 639.081 21.941 639.317 15.9468L639.427 13.1517M624.174 27.066H0.571655M639.427 40.9803L639.537 38.1852C639.773 32.191 645.046 27.3815 651.617 27.1663L655.18 27.066M639.427 40.9803V54.1323M655.18 27.066L651.617 26.9657C645.046 26.7505 639.773 21.941 639.537 15.9468L639.427 13.1517M655.18 27.066L669.598 27.066M639.427 13.1517V-0.000244141" stroke="#955F00" stroke-width="3.85457" stroke-linejoin="round"/>
</svg>
