<svg width="82" height="48" viewBox="0 0 82 48" fill="none" xmlns="http://www.w3.org/2000/svg">
<path d="M58.4614 16.2098C62.6082 16.2098 65.9698 12.7221 65.9698 8.41982C65.9698 4.11755 62.6082 0.629883 58.4614 0.629883C54.3147 0.629883 50.9531 4.11755 50.9531 8.41982C50.9531 12.7221 54.3147 16.2098 58.4614 16.2098Z" fill="#955F00"/>
<path d="M52.7383 43.4748C52.7383 37.1564 47.4512 31.79 40.6266 31.7899C33.8017 31.7899 28.5148 37.1563 28.5148 43.4748C28.5148 45.626 26.794 47.3698 24.6712 47.3698C22.5485 47.3698 20.8276 45.626 20.8276 43.4748C20.8276 32.5842 29.8274 24 40.6266 24C51.4254 24 60.4255 32.5842 60.4255 43.4748C60.4255 45.6259 58.7046 47.3697 56.5819 47.3698C54.4592 47.3698 52.7383 45.626 52.7383 43.4748Z" fill="#955F00"/>
<path d="M0.179199 43.4745C0.179199 19.7199 19.6407 0.629883 43.442 0.629883C45.5647 0.629923 47.2855 2.37374 47.2855 4.52485C47.2855 6.67596 45.5647 8.41978 43.442 8.41982C23.702 8.41982 7.86635 24.2065 7.86635 43.4745C7.86635 45.6257 6.14553 47.3695 4.02278 47.3695C1.90003 47.3695 0.179199 45.6257 0.179199 43.4745Z" fill="#955F00"/>
<path d="M73.3866 43.4744C73.3866 35.591 71.5591 28.3674 68.5273 22.539L68.23 21.9791L68.1392 21.801C67.252 19.9469 67.9469 17.6934 69.7494 16.6904C71.5519 15.6876 73.8008 16.3031 74.8684 18.0567L74.9683 18.2302L75.3264 18.9042C78.9738 25.9151 81.0737 34.3969 81.0737 43.4744C81.0737 45.6255 79.3529 47.3694 77.2301 47.3694C75.1075 47.3693 73.3866 45.6255 73.3866 43.4744Z" fill="#955F00"/>
</svg>
